<svg xmlns="http://www.w3.org/2000/svg" xmlns:xlink="http://www.w3.org/1999/xlink" id="Layer_1" width="17" height="17" x="0" y="0" enable-background="new 0 0 17 17" version="1.1" viewBox="0 0 17 17" xml:space="preserve"><path id="Mail_1_x2C__Envelope_1" fill="#FFF" fill-rule="evenodd" d="M8.052,12.454l-2.7-2.521	c-0.213-0.198-0.558-0.198-0.771,0L0,14.201v0.581c0,0.542,0.475,0.983,1.055,0.983H15.82c0.58,0,1.055-0.441,1.055-0.983v-0.581	l-4.581-4.269c-0.214-0.198-0.559-0.198-0.771,0l-2.7,2.521C8.61,12.653,8.265,12.653,8.052,12.454z M13.791,8.536l2.699,2.521	c0.212,0.199,0.385,0.123,0.385-0.168V5.465c0-0.292-0.173-0.367-0.385-0.168l-2.699,2.521C13.577,8.016,13.577,8.337,13.791,8.536z M1.055,1C0.475,1,0,1.443,0,1.984v0.177l8.011,7.504c0.212,0.199,0.556,0.199,0.768,0l8.096-7.593V1.984	C16.875,1.443,16.4,1,15.82,1H1.055z M0,5.465v5.424c0,0.291,0.173,0.367,0.385,0.168l2.699-2.521c0.214-0.199,0.214-0.52,0-0.719	L0.385,5.297C0.173,5.098,0,5.173,0,5.465z" clip-rule="evenodd"/></svg>